<svg version="1.1" id="Layer_1" xmlns="http://www.w3.org/2000/svg" xmlns:xlink="http://www.w3.org/1999/xlink" x="0px" y="0px" width="100%" viewBox="0 0 440.042 302.052" enable-background="new 0 0 496 336">
  <path fill="#000000" opacity="1.000000" stroke="none" d="M 369.073 22.742 C 377.103 23.327 384.735 23.384 393.729 25.933 C 334.365 105.713 259.71 165.739 174.283 213.641 C 172.717 210.73 174.401 209.96 175.439 209.114 C 198.95 189.941 221.187 169.341 243.055 148.351 C 272.747 119.852 301.707 90.642 327.019 58.06 C 328.893 55.648 331.294 53.459 332.134 49.392 C 275.642 51.533 222.521 66.659 170.083 84.998 C 169.629 84.621 169.174 84.245 168.719 83.868 C 176.23 71.095 183.742 58.323 192.091 44.125 C 124.785 57.692 61.656 78.873 1.007 108.061 C 17.228 93.062 35.267 80.826 54.232 70.017 C 115.468 35.115 181.386 13.608 250.416 1.169 C 250.84 1.64 251.265 2.112 251.69 2.583 C 245.094 13.888 238.497 25.193 231.236 37.637 C 239.19 35.914 245.778 34.541 252.341 33.053 C 261.879 30.89 271.51 29.271 281.128 27.527 C 296.737 24.698 312.492 23.825 328.212 22.489 C 341.654 21.347 355.151 21.32 369.073 22.742 Z"></path>
  <path fill="#000000" opacity="1.000000" stroke="none" d="M 206.624 294.228 C 199.798 294.87 193.781 297.931 185.978 297.379 C 191.649 284.714 199.9 274.119 206.016 262.024 C 202.925 260.679 200.359 262.101 198.048 262.71 C 178.391 267.894 158.42 271.738 138.272 273.771 C 113.144 276.306 87.903 279.274 62.559 275.672 C 57.953 275.017 53.272 275.315 48.627 274.582 C 44.094 273.866 44.218 272.158 46.48 269.06 C 56.021 255.998 66.178 243.416 76.996 231.416 C 121.807 181.715 173.055 139.745 229.914 104.523 C 239.833 98.379 250.184 93.025 260.198 87.069 C 261.288 86.42 262.46 85.48 264.603 87.395 C 206.384 135.946 151.038 187.198 105.551 248.544 C 161.824 247.199 215.067 232.564 267.518 214.085 C 267.893 214.542 268.269 214.998 268.644 215.455 C 261.025 228.43 253.407 241.405 245.145 255.475 C 312.948 241.876 376.54 220.512 437.371 188.907 C 437.216 192.836 434.86 193.884 433.217 195.187 C 411.745 212.212 388.605 226.627 364.315 239.28 C 335.607 254.235 305.658 266.2 274.975 276.307 C 260.787 280.98 246.404 285.154 231.764 288.329 C 223.49 290.124 215.283 292.218 206.624 294.228 Z"></path>
</svg>